PathFileType	4	(X/Y/Z)	14_1_5_p0_0-299_filt_butterworth.trc
DataRate	CameraRate	NumFrames	NumMarkers	Units	OrigDataRate	OrigDataStartFrame	OrigNumFrames
59.0	59.0	5	27	m	59.0	261	299
Frame#	Time	RHip			RKnee			RAnkle			RBigToe			RSmallToe			RHeel			LHip			LKnee			LAnkle			LBigToe			LSmallToe			LHeel			Neck			Head			Nose			RShoulder			RElbow			RWrist			RThumb			RIndex			RPinky			LShoulder			LElbow			LWrist			LThumb			LIndex			LPinky			
		X1	Y1	Z1	X2	Y2	Z2	X3	Y3	Z3	X4	Y4	Z4	X5	Y5	Z5	X6	Y6	Z6	X7	Y7	Z7	X8	Y8	Z8	X9	Y9	Z9	X10	Y10	Z10	X11	Y11	Z11	X12	Y12	Z12	X13	Y13	Z13	X14	Y14	Z14	X15	Y15	Z15	X16	Y16	Z16	X17	Y17	Z17	X18	Y18	Z18	X19	Y19	Z19	X20	Y20	Z20	X21	Y21	Z21	X22	Y22	Z22	X23	Y23	Z23	X24	Y24	Z24	X25	Y25	Z25	X26	Y26	Z26	X27	Y27	Z27	
261	4.423728813559322	0.3210842545005884	0.651560274337021	0.2972832451715549	0.3331500552107212	0.7725422807437302	0.6996745546990979	0.31825266455819834	0.8741702172047086	1.100673038894427	0.2549375015287834	0.6821569130035451	1.163854952247445	0.33332892401942155	0.702090731814898	1.1542241095844954	0.2958146502438562	1.0120769114614676	1.1652225972536214	0.1036246967008313	0.6594802345846411	0.31621583633979483	0.11499525648151251	0.7890691028551124	0.6897846344388865	0.10582661566318331	0.8916997038999521	1.0816052369251752	0.1021999718233822	0.6984378097116856	1.1494208704849105	0.054480709680291714	0.758433756758764	1.1620750745921709	0.12946088693930596	0.948324922686006	1.1381521578584661	0.2065979919259504	0.5171649081106233	-0.2257791406072782	0.21601379985040614	0.43877113831857445	-0.4582466160306467	0.20803581108292404	0.3999641347662167	-0.33015481421566223	0.3612905220001686	0.5344556587202238	-0.12660370250390768	0.40040882881896905	0.5530196403719063	0.12523685435096563	0.2742270562206757	0.48423317524503595	0.32084074368564464	0.19093639606194243	0.5037165191433184	0.39794617676323657	0.18607457797541985	0.5066234592824523	0.4161877127741941	0.19588661964561532	0.5275904500533358	0.4268711890179406	0.05223712069146136	0.5651920925185592	-0.14405729384874696	0.02031199023842534	0.5402861237619515	0.13715580735652522	0.1645282226714438	0.509162596858408	0.31492825414299985	0.23797759232920415	0.46534992227249805	0.3553971849324319	0.24713714529694714	0.48231800909923533	0.40124658206297165	0.21688722671571106	0.5169745746894429	0.43023544814304293
262	4.440677966101695	0.3210546616866833	0.6517088824719417	0.29748310567957054	0.33174441863067705	0.772423196770304	0.700004466785236	0.31833742788022895	0.874188471926556	1.100637127803043	0.25605568164070797	0.6861622508096012	1.1650705656237794	0.33346886462534003	0.7025229999951441	1.1542285641794665	0.29580740572740966	1.0119568498624067	1.1651037235896373	0.10248504283530592	0.6582381923494927	0.3163709375415645	0.11503829446816592	0.7889874556851861	0.689675706629499	0.1058234481670669	0.8915962808642129	1.0815145795193055	0.10309808768851542	0.7024335596393876	1.1508774241286384	0.05446692414862475	0.7585729969936821	1.1620416119136168	0.12920491924025757	0.9483512801363063	1.1382039767996222	0.206640160087433	0.5173043094347923	-0.22540948198735622	0.21614720183045044	0.43911607211681236	-0.4583222673846008	0.20836917047567854	0.40019670085001696	-0.33024586819373547	0.3612888929626651	0.5348223170875938	-0.12619336881053253	0.3987596666472022	0.5534787492450991	0.12428143869148477	0.2741200856704348	0.48495388104442094	0.3216208762419551	0.19146780119596193	0.5041350594047809	0.39976233458931176	0.1856507853167538	0.5066767583153174	0.418236803641492	0.19434595325712703	0.5151184100943025	0.4257264231581488	0.05222588850799045	0.5652132074840263	-0.14400803080421368	0.02025435984844798	0.5390094278127406	0.1373382049698734	0.16652500577907323	0.500854617502949	0.31570594452876055	0.23966922443137212	0.46125373143027387	0.35446589042155024	0.24725148807589226	0.48062827772978955	0.40181704705165655	0.21650576391139045	0.5157911894894933	0.4303204941735057
263	4.457627118644068	0.3209117612631204	0.6518344482969951	0.2976870384195863	0.3306843322118012	0.7721822369165621	0.7002335301205728	0.3182650417210801	0.874250885704827	1.1006267625359385	0.2580853572253935	0.6922589214877916	1.1654091537958549	0.33367867918820815	0.7032759924125116	1.154253149567172	0.2958048905418285	1.0119401112305213	1.165063871706602	0.10186595555188807	0.6583314408958063	0.3164628714723304	0.11498618077254594	0.7890108733483879	0.6896907152204954	0.10582436406235839	0.8915117782396629	1.0814660088947534	0.10430291186534393	0.7076649562275248	1.1528116757179183	0.05441409296591161	0.7586009139938943	1.16208018898307	0.1284912560271155	0.9519462596416843	1.139734906237028	0.20663149326405592	0.5173010910382554	-0.22542462392027507	0.2162666905541747	0.43908129045328226	-0.4582687287538385	0.20837452547899038	0.4003702142965335	-0.33001180979854206	0.36143924402277544	0.5353562250683325	-0.12579178332667945	0.396481395145126	0.553425394531581	0.12331107532624286	0.2740918824393782	0.48520712753269696	0.32209758757407214	0.1931645134991122	0.5045638207903842	0.40216023449876337	0.18515949367504642	0.5071559001138586	0.42033849959123526	0.193650492469453	0.5067973002044872	0.4250247730261828	0.052227380561180224	0.5652032378467559	-0.14404879261143808	0.021479426393616493	0.539131204649487	0.13766998572920247	0.16841476381487386	0.49162403915592345	0.3159114787407516	0.2401720102964971	0.45615859337252956	0.3534412223856418	0.2457689509755981	0.47909046155211765	0.40325175004159597	0.21482580234478074	0.5141136846616643	0.43080695133186203
264	4.47457627118644	0.3207597316907222	0.6519073568050249	0.2981132445716034	0.3302192792564308	0.7718988789663428	0.7008944319459371	0.3181988808123457	0.8742956972652102	1.100627031812631	0.2606852064891832	0.6998057161836375	1.1653836220324927	0.3339598005872859	0.7043485850009251	1.1543177692873496	0.29580556765159455	1.0120139373760513	1.1650838526659484	0.1016378923060087	0.6586152271650144	0.3164642485215058	0.11486887527265108	0.7892668170766516	0.6901272844701786	0.10583983671341274	0.8915359969067311	1.0815650897765223	0.10522335667487587	0.7115639218775242	1.1542711467477733	0.054350001278450306	0.7585724840742011	1.1621405185332352	0.1275512936533146	0.960868381361705	1.1433533431788474	0.20659985158003868	0.5172544760176208	-0.22557024030284054	0.2159307977403986	0.437795834658281	-0.4576931319068819	0.20787525069425863	0.4005754873235162	-0.32899932379177066	0.3616234839259503	0.5359271464525032	-0.12493505636892657	0.3929383297369522	0.5532626919254506	0.12336682251262744	0.2743318977799669	0.4840287756916702	0.32318643419095916	0.19546697222476997	0.5044978269218752	0.4056684736224918	0.1853859276967781	0.5075206709951086	0.42290527492580726	0.19349207449182024	0.5038670377280858	0.42525276992051014	0.0522324910315787	0.5651608654243938	-0.14418549086969676	0.024070064846634678	0.5397079390216969	0.1380710747728659	0.1694972700358343	0.4836692166254122	0.31620118753121085	0.23902578826321957	0.4506176574730509	0.35315442777767336	0.2429184444411458	0.4763320632512972	0.40591676517439074	0.21286314723574704	0.5107510000836237	0.43147485520430146
265	4.491525423728813	0.3207038515149888	0.6519342032355351	0.29904588239153135	0.3300809255953144	0.7719397544345975	0.7022531411386096	0.3181769274251645	0.8743244064478317	1.1006397169676314	0.2627781429500925	0.7060210210806658	1.1654282060344936	0.3342238221460432	0.7053684582203923	1.154447935585414	0.2958035265249558	1.0121027299702858	1.1651297554221607	0.10164159786136183	0.6587582123648807	0.3166788736859334	0.11473077643053528	0.7898117207581468	0.6912476039666856	0.10586333471893855	0.891697364954014	1.0819996479880647	0.1055865134544291	0.7130692441773787	1.154842532580738	0.054316180529411486	0.7585647849424771	1.1621719961525836	0.1269211469581061	0.9718063684793087	1.1480388295922492	0.2065714054495006	0.5172697792958901	-0.22559016571009116	0.21491841585637458	0.4347700479428626	-0.4562684485303071	0.20662378229803702	0.40051802612492293	-0.3270077080322145	0.36174633217740826	0.5364568386701918	-0.12381037913496334	0.3890909770886385	0.5531840705119266	0.12410880224503561	0.27506889272353013	0.4806677546531022	0.32501436029388836	0.19750396101870946	0.5030372519537027	0.4100085928323731	0.18696560951008684	0.5073417898069249	0.4254275047352657	0.19375374203277182	0.5039309357825067	0.42631335087708633	0.05223115304902978	0.5651763295114266	-0.14424059092897226	0.02714363274239013	0.5402504934875028	0.1383289430651998	0.1697898890252843	0.47689116145341837	0.31697916576431195	0.23713722769983947	0.4446966386864363	0.35416098526560963	0.2396557870993356	0.47018746707765813	0.4094078712421175	0.2119763467081003	0.506719965843219	0.43192885138355497
